<svg xmlns:ns0="http://www.w3.org/2000/svg" xmlns="http://www.w3.org/2000/svg" version="1.1"><ns0:polyline fill="none" points="11,246 10,247 8,247 7,248 7,252 6,253 6,254 5,255 3,255 61,255 60,255 57,252 57,251 58,250 61,250 62,249 64,249 65,248 69,248 65,248" stroke="black" stroke-width="1" /><ns0:polyline fill="none" points="49,247 48,246 22,246 21,247 15,247 14,246 11,246" stroke="black" stroke-width="1" /><ns0:polyline fill="none" points="102,217 102,222 101,223 101,225 100,226 100,242 102,244 103,244 104,243 107,243 108,244 109,244 110,243 110,240 111,239 111,236 112,235 112,233 111,232 111,230 109,228 109,227 106,224 106,223 102,219 102,217" stroke="black" stroke-width="1" /><ns0:polyline fill="none" points="215,203 215,206 214,207 214,217 215,218 215,219 214,220 214,222 209,227 208,227 205,230 204,230 197,237 196,237 192,241 191,241 188,244 187,244 186,245 185,245 184,246 182,246 181,247 169,247 168,248 165,248 168,248" stroke="black" stroke-width="1" /><ns0:polyline fill="none" points="170,249 171,250 172,250 174,252 174,254 175,255 254,255 253,255 249,251 249,250 246,247 246,245 245,244 245,243 243,241 243,240 241,238 241,237 239,235 239,234 238,233 238,230 237,229 237,226 236,225 236,219 235,218 235,217 234,216 234,214 233,213 233,210 232,209 232,208 230,206 228,206 227,205 218,205 217,204 216,204 215,203" stroke="black" stroke-width="1" /><ns0:polyline fill="none" points="238,147 238,148 237,149 237,151 236,152 236,153 235,154 234,154 233,155 233,156 232,157 232,158 225,165 224,165 223,166 219,166 218,167 218,169 217,170 217,180 216,181 216,186 215,187 215,197 216,198 217,198 224,191 224,189 225,188 225,185 227,183 227,182 228,181 228,180 229,179 229,178 232,175 232,174 236,170 236,169 237,168 237,163 236,162 236,152" stroke="black" stroke-width="1" /><ns0:polyline fill="none" points="109,5 108,6 103,6 102,7 101,7 100,8 100,9 99,10 99,11 96,14 96,15 95,16 95,17 94,18 94,19 92,21 92,22 86,28 86,29 84,31 84,32 83,33 83,35 82,36 82,42 81,43 81,48 80,49 80,51 79,52 79,56 78,57 78,63 77,64 77,66 76,67 76,68 75,69 75,71 73,73 73,83 74,84 74,88 75,89 75,93 76,94 76,97 77,98 77,102 78,103 78,122 79,123 79,129 80,130 80,135 81,136 82,135 82,101 83,100 83,77 84,76 84,69 85,68 85,67 86,66 86,64 88,62 88,61 89,60 89,59 90,58 90,57 92,55 92,54 94,52 94,50 96,48 96,47 99,44 99,43 100,42 101,42 102,41 103,41 104,40 105,40 106,39 117,39 118,38 128,38 129,37 159,37 160,38 168,38 169,39 174,39 175,40 177,40 178,41 180,41 181,42 185,42 186,43 187,43 188,44 189,44 196,51 196,52 197,53 197,55 198,56 198,59 199,60 199,65 198,66 198,72 197,73 197,86 198,87 198,88 202,92 202,93 206,97 206,98 207,99 207,100 208,101 208,103 209,104 209,108 210,109 210,120 211,121 211,126 212,127 212,128 213,129 213,131 215,133 217,131 217,130 218,129 218,128 219,127 219,126 220,125 220,124 221,123 221,122 222,121 226,121 229,118 230,118 232,116 232,115 233,114 233,113 235,111 236,111 237,110 239,110 241,112 241,113 242,114 242,117 244,119 246,117 246,116 247,115 247,113 248,112 248,102 249,101 249,73 248,72 248,69 247,68 247,67 246,66 246,64 245,63 245,60 244,59 244,56 243,55 243,51 242,50 242,48 241,47 241,45 239,43 239,42 237,40 237,39 236,38 236,37 235,36 235,35 234,34 234,33 233,32 233,30 232,29 232,28 230,26 230,25 225,20 224,20 222,18 221,18 217,14 216,14 211,9 210,9 209,8 197,8 196,7 187,7 186,6 158,6 157,5 109,5" stroke="black" stroke-width="1" /><ns0:polyline fill="none" points="113,238 113,240 114,241 114,242 116,244 117,244 118,245 124,245 125,246 152,246 153,247 163,247 153,247" stroke="black" stroke-width="1" /><ns0:polyline fill="none" points="216,165" stroke="black" stroke-width="1" /><ns0:polyline fill="none" points="88,98 87,99 86,99 83,102 83,105 85,107 86,106 91,106 92,105 99,105 100,106 110,106 111,105 106,100 105,100 104,99 102,99 101,98 88,98" stroke="black" stroke-width="1" /><ns0:polyline fill="none" points="160,95 159,96 154,96 153,97 150,97 149,98 145,98 144,99 141,99 140,100 139,100 137,102 137,105 139,107 141,107 142,106 146,106 147,105 152,105 153,104 166,104 167,105 174,105 175,106 178,106 179,107 182,107 183,106 183,105 178,100 177,100 176,99 175,99 174,98 173,98 172,97 170,97 169,96 167,96 166,95 160,95" stroke="black" stroke-width="1" /><ns0:polyline fill="none" points="98,112 97,113 96,113 95,114 95,117 96,118 97,118 98,119 105,119 106,118 109,118 110,117 110,115 107,112 98,112" stroke="black" stroke-width="1" /><ns0:polyline fill="none" points="157,111 156,112 154,112 153,113 152,113 151,114 151,117 152,118 165,118 167,116 167,115 165,113 164,113 163,112 160,112 159,111 157,111" stroke="black" stroke-width="1" /><ns0:polyline fill="none" points="115,180 114,181 111,181 109,183 110,184 117,184 118,185 133,185 134,184 142,184 143,185 147,185 146,185 144,183 143,183 142,182 139,182 138,181 135,181 134,180 127,180 126,181 119,181 118,180 115,180" stroke="black" stroke-width="1" /><ns0:polyline fill="none" points="121,112 118,115 118,121 117,122 117,125 116,126 116,129 115,130 115,134 114,135 114,137 113,138 113,140 112,141 112,142 111,143 111,145 110,146 110,147 109,148 109,149 108,150 108,152 107,153 107,158 111,162 112,162 113,163 114,163 115,164 117,164 118,165 127,165 128,164 133,164 134,163 137,163 138,162 139,162 143,158 143,156 144,155 143,154 143,152 142,151 142,150 141,149 141,148 139,146 139,145 137,143 137,142 136,141 136,140 135,139 135,133 134,132 134,124 135,123 135,118 134,117 134,115 132,113 125,113 124,112 121,112" stroke="black" stroke-width="1" /><ns0:polyline fill="none" points="217,163 218,164" stroke="black" stroke-width="1" /><ns0:polyline fill="none" points="242,122 242,127 241,128 241,133 240,134 240,139 239,140 239,143 238,144 239,143" stroke="black" stroke-width="1" /><ns0:polyline fill="none" points="110,185 109,186 112,189 113,189 114,190 115,190 116,191 117,191 118,192 120,192 121,193 129,193 130,192 134,192 135,191 136,191 137,190 139,190 140,189 143,189 144,188 146,188 148,186 149,187 150,187 149,187" stroke="black" stroke-width="1" /><ns0:polyline fill="none" points="141,185 135,185 134,186 117,186 116,185 110,185" stroke="black" stroke-width="1" /><ns0:polyline fill="none" points="82,140 82,149 83,150 83,154 84,155 84,159 85,160 85,165 86,166 86,170 87,171 87,176 88,177 88,180 89,181 89,184 90,185 90,187 91,188 91,191 92,192 92,194 93,195 93,198 94,199 94,200 95,201 95,202 96,203 96,204 97,205 97,206 98,207 98,208 99,209 99,210 100,211 100,212 101,213 101,214 101,213" stroke="black" stroke-width="1" /><ns0:polyline fill="none" points="216,136 215,137 215,154 214,155 214,161 215,162 214,163 214,164 213,165 213,167 212,168 212,178 211,179 211,181 210,182 210,183 209,184 209,185 208,186 208,188 207,189 207,190 206,191 206,192 205,193 205,194 204,195 204,196 203,197 203,198 201,200 201,201 199,203 199,204 191,212 190,212 186,216 185,216 181,220 180,220 177,223 176,223 174,225 172,225 170,227 168,227 167,228 165,228 164,229 162,229 161,230 159,230 158,231 156,231 155,232 152,232 151,233 148,233 147,234 143,234 142,235 137,235 136,234 122,234 121,233 119,233 118,232 117,232 116,231 115,231 114,230 113,230 114,230" stroke="black" stroke-width="1" /></svg>